{"title":"Marco.Polo.1982.SWESUB.DVDRip.XviD.-Zen_Bud","uid":5726588,"size":4743980416,"categoryP":"video","categoryS":"movies","magnet":"?xt=urn:btih:47644d6b3fc7bcdec576e7fd5a4b83f34b9bdfde&amp;dn=Marco.Polo.1982.SWESUB.DVDRip.XviD.-Zen_Bud&amp;tr=udp%3A%2F%2Ftracker.openbittorrent.com%3A80&amp;tr=udp%3A%2F%2Fopen.demonii.com%3A1337&amp;tr=udp%3A%2F%2Ftracker.coppersurfer.tk%3A6969&amp;tr=udp%3A%2F%2Fexodus.desync.com%3A6969","seeders":1,"leechers":2,"uploader":"Zen_Bud","files":4,"time":1280479745,"description":"General\nComplete name                    : Marco.Polo.1982.avi\nFormat                           : AVI\nFile size                        : 1.37 GiB\nDuration                         : 2h 15mn\nOverall bit rate                 : 1 446 Kbps\n\nVideo\n\nFormat                           : MPEG-4 Visual\nCodec ID/Hint                    : XviD\nDuration                         : 2h 15mn\nBit rate                         : 1 321 Kbps\nWidth                            : 714 pixels\nHeight                           : 576 pixels\nDisplay aspect ratio             : 4:3\nFrame rate                       : 25.000 fps\nStream size                      : 1.25 GiB (91%)\nWriting library                  : XviD 1.1.2 (UTC 2006-11-01)\n\nAudio\n\nFormat                           : MPEG Audio\nCodec ID/Hint                    : MP3\nDuration                         : 2h 15mn\nBit rate                         : 112 Kbps\nChannel(s)                       : 2 channels\nSampling rate                    : 48.0 KHz\nStream size                      : 109 MiB (8%)\n\n\n &lt;a href=&quot;\nhttp://en.wikipedia.org/wiki/Marco_Polo_%28TV_miniseries%29&quot; rel=&quot;nofollow&quot; target=&quot;_NEW&quot;&gt;\nhttp://en.wikipedia.org/wiki/Marco_Polo_%28TV_miniseries%29&lt;/a&gt;","torrent":{"xt":"urn:btih:47644d6b3fc7bcdec576e7fd5a4b83f34b9bdfde","amp;dn":"Marco.Polo.1982.SWESUB.DVDRip.XviD.-Zen_Bud","amp;tr":["udp%3A%2F%2Ftracker.openbittorrent.com%3A80","udp%3A%2F%2Fopen.demonii.com%3A1337","udp%3A%2F%2Ftracker.coppersurfer.tk%3A6969","udp%3A%2F%2Fexodus.desync.com%3A6969"],"infoHash":"47644d6b3fc7bcdec576e7fd5a4b83f34b9bdfde","infoHashBuffer":{"type":"Buffer","data":[71,100,77,107,63,199,188,222,197,118,231,253,90,75,131,243,75,155,223,222]},"announce":[],"urlList":[]}}